<svg id="visual" viewBox="0 0 1080 300" width="1080" height="300" xmlns="http://www.w3.org/2000/svg" xmlns:xlink="http://www.w3.org/1999/xlink" version="1.1"><rect x="0" y="0" width="1080" height="300" fill="#252525"></rect><path d="M278 0L287.7 5C297.3 10 316.7 20 322.2 30C327.7 40 319.3 50 315.3 60C311.3 70 311.7 80 312.3 90C313 100 314 110 309.5 120C305 130 295 140 306.2 150C317.3 160 349.7 170 363.8 180C378 190 374 200 366.3 210C358.7 220 347.3 230 334.2 240C321 250 306 260 312.8 270C319.7 280 348.3 290 362.7 295L377 300L0 300L0 295C0 290 0 280 0 270C0 260 0 250 0 240C0 230 0 220 0 210C0 200 0 190 0 180C0 170 0 160 0 150C0 140 0 130 0 120C0 110 0 100 0 90C0 80 0 70 0 60C0 50 0 40 0 30C0 20 0 10 0 5L0 0Z" fill="#fafa69"></path><path d="M337 0L334.3 5C331.7 10 326.3 20 319 30C311.7 40 302.3 50 288 60C273.7 70 254.3 80 260.2 90C266 100 297 110 297.2 120C297.3 130 266.7 140 256.5 150C246.3 160 256.7 170 263.2 180C269.7 190 272.3 200 265.7 210C259 220 243 230 237.2 240C231.3 250 235.7 260 252 270C268.3 280 296.7 290 310.8 295L325 300L0 300L0 295C0 290 0 280 0 270C0 260 0 250 0 240C0 230 0 220 0 210C0 200 0 190 0 180C0 170 0 160 0 150C0 140 0 130 0 120C0 110 0 100 0 90C0 80 0 70 0 60C0 50 0 40 0 30C0 20 0 10 0 5L0 0Z" fill="#f5e95c"></path><path d="M263 0L267 5C271 10 279 20 265.8 30C252.7 40 218.3 50 210.7 60C203 70 222 80 234 90C246 100 251 110 251.8 120C252.7 130 249.3 140 254 150C258.7 160 271.3 170 265 180C258.7 190 233.3 200 235.5 210C237.7 220 267.3 230 277.7 240C288 250 279 260 268.5 270C258 280 246 290 240 295L234 300L0 300L0 295C0 290 0 280 0 270C0 260 0 250 0 240C0 230 0 220 0 210C0 200 0 190 0 180C0 170 0 160 0 150C0 140 0 130 0 120C0 110 0 100 0 90C0 80 0 70 0 60C0 50 0 40 0 30C0 20 0 10 0 5L0 0Z" fill="#efd850"></path><path d="M248 0L246.2 5C244.3 10 240.7 20 241 30C241.3 40 245.7 50 243.8 60C242 70 234 80 218.7 90C203.3 100 180.7 110 179 120C177.3 130 196.7 140 202.8 150C209 160 202 170 198.3 180C194.7 190 194.3 200 193.2 210C192 220 190 230 194.2 240C198.3 250 208.7 260 218.8 270C229 280 239 290 244 295L249 300L0 300L0 295C0 290 0 280 0 270C0 260 0 250 0 240C0 230 0 220 0 210C0 200 0 190 0 180C0 170 0 160 0 150C0 140 0 130 0 120C0 110 0 100 0 90C0 80 0 70 0 60C0 50 0 40 0 30C0 20 0 10 0 5L0 0Z" fill="#e9c745"></path><path d="M202 0L194.5 5C187 10 172 20 159.2 30C146.3 40 135.7 50 136.5 60C137.3 70 149.7 80 159.7 90C169.7 100 177.3 110 174 120C170.7 130 156.3 140 154 150C151.7 160 161.3 170 163 180C164.7 190 158.3 200 163.7 210C169 220 186 230 184.2 240C182.3 250 161.7 260 160 270C158.3 280 175.7 290 184.3 295L193 300L0 300L0 295C0 290 0 280 0 270C0 260 0 250 0 240C0 230 0 220 0 210C0 200 0 190 0 180C0 170 0 160 0 150C0 140 0 130 0 120C0 110 0 100 0 90C0 80 0 70 0 60C0 50 0 40 0 30C0 20 0 10 0 5L0 0Z" fill="#e1b73b"></path><path d="M118 0L122.7 5C127.3 10 136.7 20 135.2 30C133.7 40 121.3 50 124.3 60C127.3 70 145.7 80 144.7 90C143.7 100 123.3 110 119.7 120C116 130 129 140 128.8 150C128.7 160 115.3 170 108.2 180C101 190 100 200 99.8 210C99.7 220 100.3 230 102.5 240C104.7 250 108.3 260 117 270C125.7 280 139.3 290 146.2 295L153 300L0 300L0 295C0 290 0 280 0 270C0 260 0 250 0 240C0 230 0 220 0 210C0 200 0 190 0 180C0 170 0 160 0 150C0 140 0 130 0 120C0 110 0 100 0 90C0 80 0 70 0 60C0 50 0 40 0 30C0 20 0 10 0 5L0 0Z" fill="#d9a733"></path><path d="M93 0L97.7 5C102.3 10 111.7 20 115.5 30C119.3 40 117.7 50 108.3 60C99 70 82 80 71.8 90C61.7 100 58.3 110 63.8 120C69.3 130 83.7 140 84.3 150C85 160 72 170 76 180C80 190 101 200 102.8 210C104.7 220 87.3 230 80.8 240C74.3 250 78.7 260 83.2 270C87.7 280 92.3 290 94.7 295L97 300L0 300L0 295C0 290 0 280 0 270C0 260 0 250 0 240C0 230 0 220 0 210C0 200 0 190 0 180C0 170 0 160 0 150C0 140 0 130 0 120C0 110 0 100 0 90C0 80 0 70 0 60C0 50 0 40 0 30C0 20 0 10 0 5L0 0Z" fill="#d0972b"></path><path d="M44 0L47.5 5C51 10 58 20 59.2 30C60.3 40 55.7 50 54.8 60C54 70 57 80 54.5 90C52 100 44 110 44.3 120C44.7 130 53.3 140 58.3 150C63.3 160 64.7 170 63.8 180C63 190 60 200 53.8 210C47.7 220 38.3 230 41.2 240C44 250 59 260 59.3 270C59.7 280 45.3 290 38.2 295L31 300L0 300L0 295C0 290 0 280 0 270C0 260 0 250 0 240C0 230 0 220 0 210C0 200 0 190 0 180C0 170 0 160 0 150C0 140 0 130 0 120C0 110 0 100 0 90C0 80 0 70 0 60C0 50 0 40 0 30C0 20 0 10 0 5L0 0Z" fill="#c78724"></path></svg>