<svg id="visual" viewBox="0 0 960 540" width="960" height="540" xmlns="http://www.w3.org/2000/svg" xmlns:xlink="http://www.w3.org/1999/xlink" version="1.1"><rect x="0" y="0" width="960" height="540" fill="#ffffff"></rect><defs><linearGradient id="grad1_0" x1="43.8%" y1="100%" x2="100%" y2="0%"><stop offset="14.444444444444446%" stop-color="#ffd83c" stop-opacity="1"></stop><stop offset="85.55555555555554%" stop-color="#ffd83c" stop-opacity="1"></stop></linearGradient></defs><defs><linearGradient id="grad1_1" x1="43.8%" y1="100%" x2="100%" y2="0%"><stop offset="14.444444444444446%" stop-color="#ffd83c" stop-opacity="1"></stop><stop offset="85.55555555555554%" stop-color="#ffe484" stop-opacity="1"></stop></linearGradient></defs><defs><linearGradient id="grad1_2" x1="43.8%" y1="100%" x2="100%" y2="0%"><stop offset="14.444444444444446%" stop-color="#fff1c2" stop-opacity="1"></stop><stop offset="85.55555555555554%" stop-color="#ffe484" stop-opacity="1"></stop></linearGradient></defs><defs><linearGradient id="grad1_3" x1="43.8%" y1="100%" x2="100%" y2="0%"><stop offset="14.444444444444446%" stop-color="#fff1c2" stop-opacity="1"></stop><stop offset="85.55555555555554%" stop-color="#ffffff" stop-opacity="1"></stop></linearGradient></defs><defs><linearGradient id="grad2_0" x1="0%" y1="100%" x2="56.3%" y2="0%"><stop offset="14.444444444444446%" stop-color="#ffd83c" stop-opacity="1"></stop><stop offset="85.55555555555554%" stop-color="#ffd83c" stop-opacity="1"></stop></linearGradient></defs><defs><linearGradient id="grad2_1" x1="0%" y1="100%" x2="56.3%" y2="0%"><stop offset="14.444444444444446%" stop-color="#ffe484" stop-opacity="1"></stop><stop offset="85.55555555555554%" stop-color="#ffd83c" stop-opacity="1"></stop></linearGradient></defs><defs><linearGradient id="grad2_2" x1="0%" y1="100%" x2="56.3%" y2="0%"><stop offset="14.444444444444446%" stop-color="#ffe484" stop-opacity="1"></stop><stop offset="85.55555555555554%" stop-color="#fff1c2" stop-opacity="1"></stop></linearGradient></defs><defs><linearGradient id="grad2_3" x1="0%" y1="100%" x2="56.3%" y2="0%"><stop offset="14.444444444444446%" stop-color="#ffffff" stop-opacity="1"></stop><stop offset="85.55555555555554%" stop-color="#fff1c2" stop-opacity="1"></stop></linearGradient></defs><g transform="translate(960, 540)"><path d="M-378 0C-332.8 -39 -287.7 -78.1 -256.8 -106.4C-226 -134.7 -209.6 -152.3 -197.3 -197.3C-185 -242.2 -176.8 -314.5 -144.7 -349.2C-112.5 -383.9 -56.2 -381 0 -378L0 0Z" fill="#fff8e0"></path><path d="M-283.5 0C-249.6 -29.3 -215.7 -58.5 -192.6 -79.8C-169.5 -101 -157.2 -114.2 -148 -148C-138.7 -181.7 -132.6 -235.9 -108.5 -261.9C-84.3 -287.9 -42.2 -285.7 0 -283.5L0 0Z" fill="#ffeba3"></path><path d="M-189 0C-166.4 -19.5 -143.8 -39 -128.4 -53.2C-113 -67.4 -104.8 -76.2 -98.6 -98.6C-92.5 -121.1 -88.4 -157.3 -72.3 -174.6C-56.2 -192 -28.1 -190.5 0 -189L0 0Z" fill="#ffde63"></path><path d="M-94.5 0C-83.2 -9.8 -71.9 -19.5 -64.2 -26.6C-56.5 -33.7 -52.4 -38.1 -49.3 -49.3C-46.2 -60.6 -44.2 -78.6 -36.2 -87.3C-28.1 -96 -14.1 -95.2 0 -94.5L0 0Z" fill="#ffd83c"></path></g><g transform="translate(0, 0)"><path d="M378 0C350.1 42.1 322.2 84.2 302.1 125.1C282 166.1 269.7 205.8 246.1 246.1C222.5 286.3 187.5 327.1 144.7 349.2C101.8 371.3 50.9 374.7 0 378L0 0Z" fill="#fff8e0"></path><path d="M283.5 0C262.6 31.6 241.7 63.2 226.6 93.9C211.5 124.5 202.3 154.4 184.6 184.6C166.8 214.8 140.7 245.4 108.5 261.9C76.3 278.5 38.2 281 0 283.5L0 0Z" fill="#ffeba3"></path><path d="M189 0C175.1 21.1 161.1 42.1 151.1 62.6C141 83 134.8 102.9 123 123C111.2 143.2 93.8 163.6 72.3 174.6C50.9 185.7 25.4 187.3 0 189L0 0Z" fill="#ffde63"></path><path d="M94.5 0C87.5 10.5 80.6 21.1 75.5 31.3C70.5 41.5 67.4 51.5 61.5 61.5C55.6 71.6 46.9 81.8 36.2 87.3C25.4 92.8 12.7 93.7 0 94.5L0 0Z" fill="#ffd83c"></path></g></svg>