<svg id="visual" viewBox="0 0 1080 450" width="1080" height="450" xmlns="http://www.w3.org/2000/svg" xmlns:xlink="http://www.w3.org/1999/xlink" version="1.1"><rect width="1080" height="450" fill="#2d2d2d"></rect><g><g transform="translate(654 224)"><path d="M91 -32.7C103.3 8.3 88.6 54.9 56.6 78.2C24.6 101.5 -24.5 101.5 -59.3 77.2C-94.1 53 -114.5 4.6 -102.3 -36.4C-90 -77.4 -45 -110.8 -2.8 -109.9C39.3 -109 78.7 -73.7 91 -32.7Z" stroke="#FFD83C" fill="none" stroke-width="20"></path></g><g transform="translate(1035 95)"><path d="M47.2 -12.6C53.5 4.1 45.7 28.1 29 40.5C12.2 52.8 -13.5 53.4 -29.8 41.5C-46.1 29.5 -53 5 -46.5 -12C-40 -29 -20 -38.6 0.2 -38.6C20.4 -38.7 40.9 -29.3 47.2 -12.6Z" stroke="#FFD83C" fill="none" stroke-width="20"></path></g><g transform="translate(81 178)"><path d="M105.8 -28.7C118.5 4.7 97.3 54.8 62.6 78.1C27.9 101.4 -20.3 97.9 -57.3 72.5C-94.3 47.1 -120 -0.1 -108.6 -31.8C-97.2 -63.4 -48.6 -79.5 -1 -79.2C46.5 -78.9 93.1 -62.1 105.8 -28.7Z" stroke="#FFD83C" fill="none" stroke-width="20"></path></g><g transform="translate(393 445)"><path d="M98.8 -23.6C111.2 6.1 92.9 54.3 60.9 75.7C28.9 97 -16.8 91.5 -42.1 70.2C-67.4 48.9 -72.3 11.9 -61.9 -15C-51.5 -42 -25.8 -58.9 8.7 -61.7C43.2 -64.5 86.4 -53.3 98.8 -23.6Z" stroke="#FFD83C" fill="none" stroke-width="20"></path></g><g transform="translate(1030 438)"><path d="M47.7 -16.2C53.5 2.1 43.9 24.7 25.3 39.2C6.8 53.7 -20.8 60.1 -34.6 49.6C-48.5 39 -48.6 11.6 -40.6 -9.9C-32.5 -31.4 -16.3 -47 2.4 -47.7C21 -48.5 42 -34.5 47.7 -16.2Z" stroke="#FFD83C" fill="none" stroke-width="20"></path></g><g transform="translate(401 12)"><path d="M60.4 -19.7C65.3 -4.4 47.5 18.2 26 33.2C4.5 48.3 -20.7 55.7 -37.3 45.1C-53.8 34.5 -61.8 5.9 -54.2 -13.1C-46.5 -32.2 -23.3 -41.7 2.2 -42.4C27.7 -43.1 55.4 -35.1 60.4 -19.7Z" stroke="#FFD83C" fill="none" stroke-width="20"></path></g></g></svg>