<svg width="1280" height="720" xmlns="http://www.w3.org/2000/svg" xmlns:xlink="http://www.w3.org/1999/xlink" overflow="hidden"><defs><clipPath id="clip0"><rect x="0" y="0" width="1280" height="720"/></clipPath></defs><g clip-path="url(#clip0)"><rect x="0" y="0" width="1280" height="720" fill="#FFFFFF"/><path d="M0 0 1280 0 1280 720 0 720Z" fill="#FFFFFF" transform="matrix(-1 0 0 1 1280 0)"/><path d="M-504 0C-443.733-52-383.6-104.133-342.4-141.867-301.333-179.6-279.467-203.067-263.067-263.067-246.667-322.933-235.733-419.333-192.933-465.6-150-511.867-74.9333-508 0-504L0 0Z" fill="#FFF8E0" transform="matrix(-1 0 0 1 -2.27374e-13 720)"/><path d="M-378 0C-332.8-39.0667-287.6-78-256.8-106.4-226-134.667-209.6-152.267-197.333-197.333-184.933-242.267-176.8-314.533-144.667-349.2-112.4-383.867-56.2667-380.933 0-378L0 0Z" fill="#FFEBA3" transform="matrix(-1 0 0 1 -2.27374e-13 720)"/><path d="M-252 0C-221.867-26-191.733-52-171.2-70.9333-150.667-89.8667-139.733-101.6-131.467-131.467-123.333-161.467-117.867-209.733-96.4-232.8-74.9333-256-37.4667-254 0-252L0 0Z" fill="#FFDE63" transform="matrix(-1 0 0 1 -2.27374e-13 720)"/><path d="M-126 0C-110.933-13.0667-95.8667-26-85.6-35.4667-75.3333-44.9333-69.8667-50.8-65.7333-65.7333-61.6-80.8-58.9333-104.8-48.2667-116.4-37.4667-128-18.8-126.933 0-126L0 0Z" fill="#FFD83C" transform="matrix(-1 0 0 1 -2.27374e-13 720)"/><path d="M504 0C466.8 56.1333 429.6 112.267 402.8 166.8 376 221.467 359.6 274.4 328.133 328.133 296.667 381.733 250 436.133 192.933 465.6 135.733 495.067 67.8667 499.6 0 504L0 0Z" fill="#FFF8E0" transform="matrix(-1 0 0 1 1280 0)"/><path d="M378 0C350.133 42.1333 322.267 84.2667 302.133 125.2 282 166 269.733 205.867 246.133 246.133 222.4 286.4 187.6 327.2 144.667 349.2 101.733 371.333 50.9333 374.667 0 378L0 0Z" fill="#FFEBA3" transform="matrix(-1 0 0 1 1280 0)"/><path d="M252 0C233.467 28.1333 214.8 56.1333 201.467 83.4667 188 110.667 179.733 137.2 164 164 148.267 190.933 125.067 218.133 96.4 232.8 67.8667 247.6 33.8667 249.733 0 252L0 0Z" fill="#FFDE63" transform="matrix(-1 0 0 1 1280 0)"/><path d="M126 0C116.667 14 107.467 28.1333 100.667 41.7333 94 55.3333 89.8667 68.6667 82 82 74.1333 95.4667 62.5333 109.067 48.2667 116.4 33.8667 123.733 16.9333 124.933 0 126L0 0Z" fill="#FFD83C" transform="matrix(-1 0 0 1 1280 0)"/><rect x="764.5" y="0.500053" width="516" height="545" stroke="#FFFFFF" stroke-width="1.33333" stroke-miterlimit="8" fill="#FFFFFF"/></g></svg>