<svg id="visual" viewBox="0 0 1080 450" width="1080" height="450" xmlns="http://www.w3.org/2000/svg" xmlns:xlink="http://www.w3.org/1999/xlink" version="1.1"><rect width="1080" height="450" fill="#2d2d2d"></rect><g><g transform="translate(558 375)"><path d="M110.2 -36.5C119.6 -7 87.8 35.1 52.7 56.9C17.7 78.7 -20.8 80.2 -55 59.2C-89.1 38.3 -119 -5 -109.1 -35.3C-99.2 -65.5 -49.6 -82.7 0.4 -82.8C50.4 -83 100.8 -66.1 110.2 -36.5Z" stroke="#FFD83C" fill="none" stroke-width="20"></path></g><g transform="translate(85 260)"><path d="M77.3 -21.2C87.9 7.7 76 47.9 49.2 67.2C22.5 86.5 -19 85 -38.7 67.3C-58.4 49.7 -56.2 16.1 -46.1 -12.1C-36 -40.3 -18 -63 7.7 -65.5C33.3 -68 66.6 -50.2 77.3 -21.2Z" stroke="#FFD83C" fill="none" stroke-width="20"></path></g><g transform="translate(1018 410)"><path d="M56.1 -22C62.2 0.5 49.4 25.4 30.2 38.7C11 52 -14.6 53.6 -30.3 42.1C-46 30.6 -51.9 5.9 -45.2 -17.4C-38.5 -40.7 -19.3 -62.7 2.9 -63.6C25 -64.5 50 -44.5 56.1 -22Z" stroke="#FFD83C" fill="none" stroke-width="20"></path></g><g transform="translate(997 63)"><path d="M70.1 -29.4C79.2 5.3 67 40.3 39.5 62.1C12.1 83.8 -30.6 92.4 -52.9 75.5C-75.2 58.7 -77.1 16.5 -64.9 -22.5C-52.7 -61.5 -26.4 -97.3 2.1 -98C30.5 -98.6 61 -64.2 70.1 -29.4Z" stroke="#FFD83C" fill="none" stroke-width="20"></path></g><g transform="translate(357 66)"><path d="M40.7 -8.3C47.9 9.1 45.7 34.5 29.1 48.5C12.5 62.6 -18.5 65.3 -35 52.3C-51.6 39.3 -53.8 10.6 -45.5 -8.2C-37.3 -26.9 -18.6 -35.7 -1 -35.4C16.7 -35 33.4 -25.7 40.7 -8.3Z" stroke="#FFD83C" fill="none" stroke-width="20"></path></g></g></svg>