<svg id="visual" viewBox="0 0 1080 300" width="1080" height="300" xmlns="http://www.w3.org/2000/svg" xmlns:xlink="http://www.w3.org/1999/xlink" version="1.1"><rect x="0" y="0" width="1080" height="300" fill="#2d2d2d"></rect><defs><linearGradient id="grad1_0" x1="72.2%" y1="100%" x2="100%" y2="0%"><stop offset="-22%" stop-color="#2d2d2d" stop-opacity="1"></stop><stop offset="122%" stop-color="#2d2d2d" stop-opacity="1"></stop></linearGradient></defs><defs><linearGradient id="grad2_0" x1="0%" y1="100%" x2="27.8%" y2="0%"><stop offset="-22%" stop-color="#2d2d2d" stop-opacity="1"></stop><stop offset="122%" stop-color="#2d2d2d" stop-opacity="1"></stop></linearGradient></defs><g transform="translate(1080, 300)"><path d="M-255 0C-239.7 -22.4 -224.3 -44.9 -217.8 -70.8C-211.3 -96.7 -213.5 -126 -201.4 -146.4C-189.4 -166.7 -163 -177.9 -141.1 -194.2C-119.1 -210.4 -101.6 -231.6 -78.8 -242.5C-56 -253.5 -28 -254.2 0 -255L0 0Z" fill="#FFD83C"></path></g><g transform="translate(0, 0)"><path d="M255 0C253.8 27.2 252.6 54.4 242.5 78.8C232.5 103.2 213.6 124.7 193.4 140.5C173.1 156.2 151.5 166.2 132.8 182.8C114.1 199.5 98.3 222.7 76.6 235.9C55 249 27.5 252 0 255L0 0Z" fill="#FFD83C"></path></g></svg>